<mxfile host="app.diagrams.net" modified="2024-01-05T11:50:33.136Z" agent="Mozilla/5.0 (Windows NT 10.0; Win64; x64) AppleWebKit/537.36 (KHTML, like Gecko) Chrome/120.0.0.0 Safari/537.36" etag="B8BlN-cyMXYrjGplHZ1M" version="22.1.16" type="github">
  <diagram name="Page-1" id="GpboTp_EHcu4RLdf8tmy">
    <mxGraphModel dx="1434" dy="784" grid="1" gridSize="10" guides="1" tooltips="1" connect="1" arrows="1" fold="1" page="1" pageScale="1" pageWidth="850" pageHeight="1100" math="0" shadow="0">
      <root>
        <mxCell id="0" />
        <mxCell id="1" parent="0" />
        <mxCell id="gUXDUpXxhjTfHU6SkFlW-1" value="&lt;font size=&quot;1&quot; style=&quot;&quot;&gt;&lt;b style=&quot;font-size: 28px;&quot;&gt;Start&amp;nbsp;&lt;/b&gt;&lt;/font&gt;" style="ellipse;whiteSpace=wrap;html=1;" vertex="1" parent="1">
          <mxGeometry x="323" y="60" width="205" height="80" as="geometry" />
        </mxCell>
        <mxCell id="gUXDUpXxhjTfHU6SkFlW-13" value="" style="edgeStyle=orthogonalEdgeStyle;rounded=0;orthogonalLoop=1;jettySize=auto;html=1;" edge="1" parent="1" source="gUXDUpXxhjTfHU6SkFlW-2" target="gUXDUpXxhjTfHU6SkFlW-3">
          <mxGeometry relative="1" as="geometry">
            <Array as="points">
              <mxPoint x="420" y="350" />
              <mxPoint x="420" y="350" />
            </Array>
          </mxGeometry>
        </mxCell>
        <mxCell id="gUXDUpXxhjTfHU6SkFlW-2" value="&lt;font style=&quot;font-size: 19px;&quot;&gt;input&amp;nbsp;&lt;br&gt;num1 &amp;amp; num 2&lt;/font&gt;" style="shape=parallelogram;perimeter=parallelogramPerimeter;whiteSpace=wrap;html=1;fixedSize=1;" vertex="1" parent="1">
          <mxGeometry x="290" y="240" width="240" height="80" as="geometry" />
        </mxCell>
        <mxCell id="gUXDUpXxhjTfHU6SkFlW-17" style="edgeStyle=orthogonalEdgeStyle;rounded=0;orthogonalLoop=1;jettySize=auto;html=1;" edge="1" parent="1" source="gUXDUpXxhjTfHU6SkFlW-3">
          <mxGeometry relative="1" as="geometry">
            <mxPoint x="890" y="495" as="targetPoint" />
          </mxGeometry>
        </mxCell>
        <mxCell id="gUXDUpXxhjTfHU6SkFlW-3" value="&lt;font style=&quot;font-size: 20px;&quot;&gt;Is&lt;br&gt;num1&amp;gt;num 2&lt;/font&gt;" style="rhombus;whiteSpace=wrap;html=1;" vertex="1" parent="1">
          <mxGeometry x="310" y="410" width="220" height="170" as="geometry" />
        </mxCell>
        <mxCell id="gUXDUpXxhjTfHU6SkFlW-21" style="edgeStyle=orthogonalEdgeStyle;rounded=0;orthogonalLoop=1;jettySize=auto;html=1;exitX=0.5;exitY=1;exitDx=0;exitDy=0;" edge="1" parent="1" source="gUXDUpXxhjTfHU6SkFlW-6">
          <mxGeometry relative="1" as="geometry">
            <mxPoint x="1045" y="1070" as="targetPoint" />
          </mxGeometry>
        </mxCell>
        <mxCell id="gUXDUpXxhjTfHU6SkFlW-6" value="&lt;font style=&quot;font-size: 20px;&quot;&gt;Display num 2 is greatest&lt;/font&gt;" style="shape=parallelogram;perimeter=parallelogramPerimeter;whiteSpace=wrap;html=1;fixedSize=1;size=10;" vertex="1" parent="1">
          <mxGeometry x="880" y="440" width="330" height="130" as="geometry" />
        </mxCell>
        <mxCell id="gUXDUpXxhjTfHU6SkFlW-15" style="edgeStyle=orthogonalEdgeStyle;rounded=0;orthogonalLoop=1;jettySize=auto;html=1;" edge="1" parent="1" source="gUXDUpXxhjTfHU6SkFlW-7" target="gUXDUpXxhjTfHU6SkFlW-10">
          <mxGeometry relative="1" as="geometry" />
        </mxCell>
        <mxCell id="gUXDUpXxhjTfHU6SkFlW-7" value="&lt;font style=&quot;font-size: 20px;&quot;&gt;Display num 1 is greatest&amp;nbsp;&lt;/font&gt;" style="shape=parallelogram;perimeter=parallelogramPerimeter;whiteSpace=wrap;html=1;fixedSize=1;" vertex="1" parent="1">
          <mxGeometry x="265" y="730" width="360" height="120" as="geometry" />
        </mxCell>
        <mxCell id="gUXDUpXxhjTfHU6SkFlW-16" style="edgeStyle=orthogonalEdgeStyle;rounded=0;orthogonalLoop=1;jettySize=auto;html=1;" edge="1" parent="1" source="gUXDUpXxhjTfHU6SkFlW-10">
          <mxGeometry relative="1" as="geometry">
            <mxPoint x="445" y="1240" as="targetPoint" />
            <Array as="points">
              <mxPoint x="445" y="1165" />
              <mxPoint x="446" y="1165" />
            </Array>
          </mxGeometry>
        </mxCell>
        <mxCell id="gUXDUpXxhjTfHU6SkFlW-10" value="" style="ellipse;whiteSpace=wrap;html=1;aspect=fixed;" vertex="1" parent="1">
          <mxGeometry x="410" y="1020" width="70" height="70" as="geometry" />
        </mxCell>
        <mxCell id="gUXDUpXxhjTfHU6SkFlW-11" value="&lt;b&gt;&lt;font style=&quot;font-size: 16px;&quot;&gt;End&lt;/font&gt;&lt;/b&gt;" style="ellipse;whiteSpace=wrap;html=1;" vertex="1" parent="1">
          <mxGeometry x="375" y="1240" width="155" height="100" as="geometry" />
        </mxCell>
        <mxCell id="gUXDUpXxhjTfHU6SkFlW-12" style="edgeStyle=orthogonalEdgeStyle;rounded=0;orthogonalLoop=1;jettySize=auto;html=1;exitX=0.5;exitY=1;exitDx=0;exitDy=0;entryX=0.567;entryY=-0.025;entryDx=0;entryDy=0;entryPerimeter=0;" edge="1" parent="1" source="gUXDUpXxhjTfHU6SkFlW-1" target="gUXDUpXxhjTfHU6SkFlW-2">
          <mxGeometry relative="1" as="geometry" />
        </mxCell>
        <mxCell id="gUXDUpXxhjTfHU6SkFlW-14" style="edgeStyle=orthogonalEdgeStyle;rounded=0;orthogonalLoop=1;jettySize=auto;html=1;entryX=0.431;entryY=0;entryDx=0;entryDy=0;entryPerimeter=0;" edge="1" parent="1" source="gUXDUpXxhjTfHU6SkFlW-3" target="gUXDUpXxhjTfHU6SkFlW-7">
          <mxGeometry relative="1" as="geometry" />
        </mxCell>
      </root>
    </mxGraphModel>
  </diagram>
</mxfile>
